<svg width="360" height="288" viewBox="0 0 360 288" fill="none" xmlns="http://www.w3.org/2000/svg">
  <defs>
    <linearGradient id="pricing-bg" x1="40" y1="24" x2="324" y2="264" gradientUnits="userSpaceOnUse">
      <stop stop-color="#CEF9D8"/>
      <stop offset="0.5" stop-color="#A4F6DD"/>
      <stop offset="1" stop-color="#6FE5C1"/>
    </linearGradient>
  </defs>
  <rect x="0.75" y="0.75" width="358.5" height="286.5" rx="40.75" fill="url(#pricing-bg)" stroke="#DDFCED"/>
  <g opacity="0.9">
    <rect x="72" y="70" width="216" height="164" rx="28" fill="#FFFFFF" fill-opacity="0.9"/>
    <rect x="96" y="102" width="168" height="12" rx="6" fill="#2FBE8C" fill-opacity="0.75"/>
    <rect x="96" y="124" width="144" height="10" rx="5" fill="#66D5AB"/>
    <rect x="96" y="144" width="156" height="10" rx="5" fill="#B4EDD3"/>
    <rect x="96" y="166" width="132" height="10" rx="5" fill="#E1FAF0"/>
    <g transform="translate(120 184)">
      <rect width="120" height="42" rx="14" fill="#F1FFF8"/>
      <rect x="16" y="12" width="64" height="8" rx="4" fill="#2FBE8C"/>
      <rect x="16" y="26" width="92" height="6" rx="3" fill="#B8F1D6"/>
      <g transform="translate(90 4)">
        <circle cx="16" cy="16" r="16" fill="#2FBE8C" fill-opacity="0.12"/>
        <path d="M12.5 16h7m-3.5-3.5L20 16l-4 3.5" stroke="#2FBE8C" stroke-width="1.5" stroke-linecap="round" stroke-linejoin="round"/>
      </g>
    </g>
  </g>
  <g opacity="0.6">
    <rect x="120" y="248" width="120" height="12" rx="6" fill="#FFFFFF" fill-opacity="0.5"/>
    <rect x="146" y="266" width="72" height="10" rx="5" fill="#FFFFFF" fill-opacity="0.4"/>
  </g>
</svg>
