<svg width="360" height="288" viewBox="0 0 360 288" fill="none" xmlns="http://www.w3.org/2000/svg">
  <defs>
    <linearGradient id="digital-bg" x1="36" y1="20" x2="324" y2="268" gradientUnits="userSpaceOnUse">
      <stop stop-color="#9FE1FF"/>
      <stop offset="0.5" stop-color="#9BB6FF"/>
      <stop offset="1" stop-color="#6F7BFF"/>
    </linearGradient>
  </defs>
  <rect x="0.75" y="0.75" width="358.5" height="286.5" rx="40.75" fill="url(#digital-bg)" stroke="#E1E9FF"/>
  <g opacity="0.85">
    <rect x="60" y="64" width="240" height="160" rx="24" fill="#FFFFFF" fill-opacity="0.88"/>
    <rect x="80" y="84" width="112" height="24" rx="12" fill="#6F7BFF" fill-opacity="0.75"/>
    <rect x="80" y="124" width="184" height="12" rx="6" fill="#C9D2FF"/>
    <rect x="80" y="148" width="168" height="12" rx="6" fill="#DDE3FF"/>
    <rect x="80" y="172" width="152" height="12" rx="6" fill="#EEF1FF"/>
    <g transform="translate(216 80)">
      <rect x="0" y="0" width="84" height="84" rx="16" fill="#ECF2FF"/>
      <path d="M24 48c5-9 14-14 22-13 8 1 15 7 18 16" stroke="#6F7BFF" stroke-width="4" stroke-linecap="round"/>
      <circle cx="31" cy="31" r="8" fill="#6F7BFF"/>
      <circle cx="45" cy="55" r="10" fill="#A1B0FF"/>
    </g>
  </g>
  <g opacity="0.7">
    <rect x="108" y="240" width="144" height="12" rx="6" fill="#FFFFFF" fill-opacity="0.6"/>
    <rect x="132" y="260" width="96" height="10" rx="5" fill="#FFFFFF" fill-opacity="0.4"/>
  </g>
</svg>
