<svg width="360" height="288" viewBox="0 0 360 288" fill="none" xmlns="http://www.w3.org/2000/svg">
  <defs>
    <linearGradient id="team-bg" x1="28" y1="18" x2="312" y2="270" gradientUnits="userSpaceOnUse">
      <stop stop-color="#FFD6F7"/>
      <stop offset="0.5" stop-color="#F9B6FF"/>
      <stop offset="1" stop-color="#D99CFF"/>
    </linearGradient>
  </defs>
  <rect x="0.75" y="0.75" width="358.5" height="286.5" rx="40.75" fill="url(#team-bg)" stroke="#F7E2FF"/>
  <g opacity="0.9">
    <rect x="68" y="80" width="224" height="148" rx="28" fill="#FFFFFF" fill-opacity="0.88"/>
    <g transform="translate(92 102)">
      <rect width="96" height="96" rx="20" fill="#FFE3FB"/>
      <path d="M30 60h36" stroke="#D99CFF" stroke-width="4" stroke-linecap="round"/>
      <path d="M38 46c2-10 10-18 18-18 8 0 15 8 18 18" stroke="#D270FF" stroke-width="4" stroke-linecap="round"/>
      <circle cx="45" cy="30" r="10" fill="#D270FF"/>
      <circle cx="60" cy="64" r="10" fill="#E7B9FF"/>
    </g>
    <rect x="200" y="112" width="84" height="12" rx="6" fill="#D270FF" fill-opacity="0.8"/>
    <rect x="200" y="138" width="100" height="10" rx="5" fill="#E7B9FF" fill-opacity="0.8"/>
    <rect x="200" y="158" width="96" height="10" rx="5" fill="#F6D7FF"/>
    <rect x="200" y="180" width="110" height="12" rx="6" fill="#FFE9FF"/>
  </g>
  <g opacity="0.65">
    <rect x="112" y="244" width="136" height="12" rx="6" fill="#FFFFFF" fill-opacity="0.55"/>
    <rect x="138" y="262" width="88" height="10" rx="5" fill="#FFFFFF" fill-opacity="0.4"/>
  </g>
</svg>
