<svg width="390" height="390" viewBox="0 0 390 390" fill="none" xmlns="http://www.w3.org/2000/svg">
  <defs>
    <linearGradient id="hero-bg" x1="61" y1="40" x2="343" y2="349" gradientUnits="userSpaceOnUse">
      <stop stop-color="#A1C4FF"/>
      <stop offset="0.5" stop-color="#D4E3FF"/>
      <stop offset="1" stop-color="#90B9FF"/>
    </linearGradient>
    <linearGradient id="hero-card" x1="140" y1="98" x2="253" y2="288" gradientUnits="userSpaceOnUse">
      <stop stop-color="#FFFFFF" stop-opacity="0.95"/>
      <stop offset="1" stop-color="#FFFFFF" stop-opacity="0.55"/>
    </linearGradient>
    <linearGradient id="hero-line" x1="0" y1="0" x2="120" y2="0" gradientUnits="userSpaceOnUse">
      <stop stop-color="#7622D7"/>
      <stop offset="1" stop-color="#A66BFF"/>
    </linearGradient>
  </defs>
  <rect x="0.5" y="0.5" width="389" height="389" rx="48.5" fill="url(#hero-bg)" stroke="#E6EEFF"/>
  <circle cx="312" cy="76" r="32" fill="#FFFFFF" fill-opacity="0.55"/>
  <circle cx="86" cy="98" r="22" fill="#FFFFFF" fill-opacity="0.4"/>
  <circle cx="96" cy="294" r="48" fill="#FFFFFF" fill-opacity="0.35"/>

  <rect x="94" y="110" width="202" height="212" rx="32" fill="url(#hero-card)" stroke="#EDF3FF"/>
  <rect x="112" y="134" width="78" height="78" rx="16" fill="#D9E8FF"/>
  <rect x="206" y="134" width="60" height="12" rx="6" fill="#7622D7" fill-opacity="0.8"/>
  <rect x="206" y="156" width="84" height="8" rx="4" fill="#94B2FF" fill-opacity="0.8"/>
  <rect x="206" y="174" width="68" height="8" rx="4" fill="#C6D8FF"/>

  <rect x="112" y="224" width="158" height="14" rx="7" fill="#7622D7"/>
  <rect x="112" y="248" width="134" height="12" rx="6" fill="#A77EFF" fill-opacity="0.9"/>
  <rect x="112" y="272" width="102" height="12" rx="6" fill="#D0B8FF"/>

  <g opacity="0.85">
    <rect x="160" y="182" width="120" height="62" rx="18" fill="#FFFFFF"/>
    <rect x="172" y="198" width="68" height="12" rx="6" fill="#7622D7"/>
    <rect x="172" y="218" width="92" height="10" rx="5" fill="#D9CBFF"/>
    <g transform="translate(248 204)">
      <circle cx="16" cy="16" r="16" fill="#7622D7" fill-opacity="0.1"/>
      <path d="M13 16h6m-3-3 3 3-3 3" stroke="#7622D7" stroke-width="1.5" stroke-linecap="round" stroke-linejoin="round"/>
    </g>
  </g>

  <g transform="translate(132 312)" opacity="0.75">
    <rect x="0" y="0" width="156" height="8" rx="4" fill="url(#hero-line)"/>
    <rect x="12" y="16" width="120" height="8" rx="4" fill="#FFFFFF" fill-opacity="0.6"/>
  </g>
</svg>
