<svg width="200" height="32" viewBox="0 0 200 32" fill="none" xmlns="http://www.w3.org/2000/svg">
<g clip-path="url(#clip0_1_82)">
<path fill-rule="evenodd" clip-rule="evenodd" d="M18.8413 0.000288343C18.9826 0.000288343 19.1249 0.0166752 19.2653 0.0494488C22.6566 0.860114 25.7336 2.81978 27.9297 5.56795C30.1903 8.39901 31.3864 11.8113 31.3864 15.4367C31.3864 19.061 30.1903 22.4743 27.9297 25.3044C25.7336 28.0536 22.6566 30.0142 19.2653 30.8229C19.1249 30.8567 18.9826 30.874 18.8413 30.874C17.8355 30.874 17.0153 30.046 17.0153 29.0281C17.0153 28.148 17.5951 27.3952 18.4239 27.1957C21.4566 26.4669 24.1538 24.5227 25.8297 21.8536L25.8422 21.8333C26.0845 21.4285 26.0903 20.9426 25.8595 20.5339C25.6182 20.1069 25.1701 19.8418 24.6884 19.8418C24.4922 19.8418 24.3018 19.8852 24.1201 19.97C23.4557 20.2833 22.7451 20.4424 22.0066 20.4424C19.3682 20.4424 17.1816 18.3709 17.0297 15.7268L17.0288 15.7124L17.0268 15.6979C17.0191 15.6246 17.0153 15.5591 17.0153 15.4984V15.375C17.0153 15.3133 17.0191 15.2487 17.0268 15.1754L17.0288 15.161L17.0297 15.1456C17.1816 12.5025 19.3682 10.4319 22.0066 10.4319C22.7451 10.4319 23.4557 10.5891 24.1201 10.9023C24.3018 10.9881 24.4922 11.0315 24.6884 11.0315C25.1701 11.0315 25.6182 10.7664 25.8595 10.3404C26.0903 9.93166 26.0845 9.44584 25.8441 9.04388L25.8249 9.01207C24.1538 6.35066 21.4566 4.40641 18.4239 3.67672C17.5951 3.47815 17.0153 2.72436 17.0153 1.84525C17.0153 0.828305 17.8355 0.000288343 18.8413 0.000288343ZM12.5442 -0.000290015C13.551 -0.000290015 14.3702 0.827726 14.3702 1.84564C14.3702 2.72474 13.7913 3.47853 12.9625 3.6771C9.92981 4.4068 7.23173 6.35105 5.56058 9.01342L5.55 9.02981L5.54519 9.03752C5.30192 9.44526 5.29423 9.93108 5.52596 10.3398C5.76731 10.7668 6.21635 11.0319 6.69808 11.0319C6.89327 11.0319 7.08365 10.9885 7.26539 10.9027C7.92981 10.5904 8.64038 10.4314 9.37885 10.4314C12.0183 10.4314 14.2048 12.5019 14.3558 15.1469L14.3567 15.1614L14.3587 15.1758C14.3663 15.2481 14.3702 15.3127 14.3702 15.3754L14.3707 15.4289C14.3712 15.4448 14.3702 15.4515 14.3702 15.4612V15.4987C14.3702 15.5604 14.3663 15.625 14.3587 15.6973L14.3567 15.7118L14.3558 15.7272C14.2048 18.3713 12.0183 20.4418 9.37885 20.4418C8.64038 20.4418 7.92981 20.2827 7.26539 19.9704C7.08365 19.8856 6.89327 19.8413 6.69712 19.8413C6.21635 19.8413 5.76731 20.1073 5.52596 20.5334C5.29423 20.9421 5.30192 21.4279 5.54519 21.8347L5.56154 21.8607C7.23269 24.5221 9.92981 26.4673 12.9625 27.196C13.7913 27.3956 14.3702 28.1494 14.3702 29.0275C14.3702 30.0454 13.551 30.8734 12.5442 30.8734C12.4029 30.8734 12.2606 30.8561 12.1202 30.8223C8.72885 30.0136 5.65192 28.0539 3.45673 25.3048C1.19519 22.4737 0 19.0614 0 15.4371C0 11.8117 1.19519 8.3994 3.45673 5.56737C5.65192 2.81921 8.72885 0.859536 12.1202 0.0498344C12.2606 0.0170607 12.4029 -0.000290015 12.5442 -0.000290015ZM98.7386 9.15849L102.278 18.1471L105.86 9.15849H107.894L101.112 25.7285H99.1193L101.176 20.6293L96.5761 9.15849H98.7386ZM73.453 8.88956C76.5684 8.88956 79.1972 11.5057 79.1972 14.8601C79.1972 18.5269 76.4414 21.0765 73.3684 21.0765C71.4597 21.0765 70.0616 20.2273 69.2559 19.0195H69.2136V25.7285H67.3059V9.15849H69.2136V10.9919H69.2559C70.1674 9.60576 71.8203 8.88956 73.453 8.88956ZM90.4299 8.88956C93.9059 8.88956 96.4068 11.7071 96.4068 14.9941C96.4068 18.3264 94.0328 21.0765 90.4299 21.0765C86.8261 21.0765 84.453 18.3264 84.453 14.9941C84.453 11.7071 86.954 8.88956 90.4299 8.88956ZM41.9357 8.88956C45.3482 8.88956 47.7222 11.6406 47.7222 15.7547H38.2693C38.5655 17.7452 40.0914 19.1988 42.2318 19.1988C43.5886 19.1988 44.7972 18.5269 45.7722 17.3201L47.2347 18.5501C45.7511 20.2938 44.1828 21.0765 42.253 21.0765C38.3318 21.0765 36.2347 18.0806 36.2347 14.972C36.2347 11.6628 38.4809 8.88956 41.9357 8.88956ZM193.792 8.88956C197.268 8.88956 199.769 11.7071 199.769 14.9941C199.769 18.3264 197.395 21.0765 193.792 21.0765C190.189 21.0765 187.815 18.3264 187.815 14.9941C187.815 11.7071 190.316 8.88956 193.792 8.88956ZM174.886 8.88956C178.298 8.88956 180.672 11.6406 180.672 15.7547H171.219C171.515 17.7452 173.042 19.1988 175.183 19.1988C176.54 19.1988 177.747 18.5269 178.723 17.3201L180.185 18.5501C178.702 20.2938 177.133 21.0765 175.204 21.0765C171.283 21.0765 169.185 18.0806 169.185 14.972C169.185 11.6628 171.431 8.88956 174.886 8.88956ZM132.311 8.88956C135.723 8.88956 138.097 11.6406 138.097 15.7547H128.644C128.941 17.7452 130.467 19.1988 132.609 19.1988C133.965 19.1988 135.173 18.5269 136.148 17.3201L137.61 18.5501C136.126 20.2938 134.558 21.0765 132.629 21.0765C128.708 21.0765 126.61 18.0806 126.61 14.972C126.61 11.6628 128.857 8.88956 132.311 8.88956ZM120.929 8.88956C123.304 8.88956 125.169 10.3885 125.169 13.4518V20.8086H123.261V13.6755C123.261 11.6628 122.159 10.7683 120.844 10.7683C119.255 10.7683 118.068 11.8189 118.068 13.7642V20.8086H116.161V13.6755C116.161 11.6628 115.059 10.7683 113.744 10.7683C112.155 10.7683 110.968 11.8189 110.968 13.7642V20.8086H109.06V9.15849H110.968V10.5446H111.01C111.518 9.35899 112.896 8.88956 114.063 8.88956C115.185 8.88956 116.415 9.20284 117.327 10.9022C118.005 9.42647 119.467 8.88956 120.929 8.88956ZM144.392 8.88956C146.534 8.88956 148.653 10.1195 148.653 13.2735V20.8086H146.745V14.0331C146.745 12.2884 146.067 10.7683 144.181 10.7683C142.4 10.7683 141.319 12.0426 141.319 14.2567V20.8086H139.412V9.15849H141.319V10.5225H141.362C141.934 9.47177 143.163 8.88956 144.392 8.88956ZM152.891 6.34093V9.15849H154.65V10.9244H152.891V18.0806C152.891 18.7062 153.082 18.9299 153.824 18.9299H154.693V20.7864C154.509 20.8012 154.25 20.8061 153.966 20.8077L153.527 20.8086C151.577 20.8086 150.984 20.0933 150.984 18.3043V10.9244H149.458V9.15849H150.984V6.34093H152.891ZM187.54 8.88956V11.0141C187.265 10.9475 186.967 10.9022 186.67 10.9022C185.081 10.9022 184.021 12.0647 184.021 14.1902V20.8086H182.113V9.15849H184.021V10.8126H184.064C185.017 9.00137 185.929 8.88956 187.54 8.88956ZM82.3972 5.14565V17.1639C82.3972 18.4826 83.0116 18.9299 83.6261 18.9299H84.1982V20.8086H83.4136C81.6549 20.8086 80.4895 19.7569 80.4895 17.3201V5.14565H82.3972ZM60.9905 8.88956C63.3645 8.88956 65.2289 10.3885 65.2289 13.4518V20.8086H63.3213V13.6755C63.3213 11.6628 62.2184 10.7683 60.9049 10.7683C59.3155 10.7683 58.1289 11.8189 58.1289 13.7642V20.8086H56.2213V13.6755C56.2213 11.6628 55.1184 10.7683 53.8049 10.7683C52.2155 10.7683 51.028 11.8189 51.028 13.7642V20.8086H49.1203V9.15849H51.028V10.5446H51.0703C51.5799 9.35899 52.9568 8.88956 54.1232 8.88956C55.2463 8.88956 56.4751 9.20284 57.3866 10.9022C58.0645 9.42647 59.528 8.88956 60.9905 8.88956ZM160.495 5.14565V10.5225H160.537C161.11 9.47177 162.339 8.88956 163.567 8.88956C165.709 8.88956 167.828 10.1195 167.828 13.2735V20.8086H165.921V14.0331C165.921 12.2884 165.243 10.7683 163.357 10.7683C161.576 10.7683 160.495 12.0426 160.495 14.2567V20.8086H158.587V5.14565H160.495ZM73.1136 10.7683C71.0366 10.7683 69.2136 12.647 69.2136 14.9941C69.2136 17.3201 70.9934 19.1988 73.177 19.1988C75.1905 19.1988 77.1626 17.5659 77.1626 14.8833C77.1626 12.9371 75.7001 10.7683 73.1136 10.7683ZM193.792 10.7683C191.672 10.7683 189.85 12.5795 189.85 14.9941C189.85 17.2304 191.672 19.1988 193.792 19.1988C195.912 19.1988 197.735 17.2304 197.735 14.9941C197.735 12.5795 195.912 10.7683 193.792 10.7683ZM90.4299 10.7683C88.3107 10.7683 86.4876 12.5795 86.4876 14.9941C86.4876 17.2304 88.3107 19.1988 90.4299 19.1988C92.5491 19.1988 94.3713 17.2304 94.3713 14.9941C94.3713 12.5795 92.5491 10.7683 90.4299 10.7683ZM41.9145 10.7683C39.5828 10.7683 38.4597 12.512 38.2693 14.1006H45.5597C45.3693 12.1775 43.8857 10.7683 41.9145 10.7683ZM132.29 10.7683C129.959 10.7683 128.836 12.512 128.644 14.1006H135.936C135.744 12.1775 134.262 10.7683 132.29 10.7683ZM174.865 10.7683C172.534 10.7683 171.411 12.512 171.219 14.1006H178.511C178.319 12.1775 176.837 10.7683 174.865 10.7683Z" fill="#171214"/>
</g>
<defs>
<clipPath id="clip0_1_82">
<rect width="199.932" height="31.83" fill="white" transform="scale(1.00034)"/>
</clipPath>
</defs>
</svg>
